<?xml version="1.0" standalone="no"?>
<!DOCTYPE svg PUBLIC "-//W3C//DTD SVG 20010904//EN"
 "http://www.w3.org/TR/2001/REC-SVG-20010904/DTD/svg10.dtd">
<svg version="1.0" xmlns="http://www.w3.org/2000/svg"
 width="512.000000pt" height="512.000000pt" viewBox="0 0 512.000000 512.000000"
 preserveAspectRatio="xMidYMid meet">
<metadata>
Created by potrace 1.16, written by Peter Selinger 2001-2019
</metadata>
<g transform="translate(0.000000,512.000000) scale(0.100000,-0.100000)"
fill="#FFFFF" stroke="#FFFFF">
<path d="M2290 4544 c-14 -2 -65 -9 -115 -15 -103 -13 -314 -64 -425 -104
-165 -60 -456 -210 -518 -268 -13 -12 -57 -71 -97 -132 -41 -60 -113 -157
-161 -215 -118 -141 -193 -258 -274 -422 -301 -613 -255 -1298 119 -1770 37
-47 75 -107 86 -134 109 -291 358 -572 675 -762 47 -28 93 -54 103 -57 23 -9
22 -18 -5 -30 -53 -23 0 -46 160 -70 59 -9 163 -19 231 -21 69 -3 129 -8 133
-10 4 -3 8 0 8 5 0 6 -7 11 -15 11 -26 0 -202 60 -280 95 -167 76 -434 254
-610 406 -267 230 -405 437 -445 668 -16 92 -3 95 66 14 143 -167 267 -274
423 -368 7 -4 -31 37 -85 92 -55 54 -123 134 -152 176 -70 102 -155 280 -188
396 -24 85 -26 98 -13 125 9 22 12 55 9 111 -11 187 -5 469 13 575 127 737
412 1133 1042 1448 153 77 339 129 510 145 32 3 29 4 -17 5 -89 3 -280 -34
-428 -83 -474 -158 -765 -417 -990 -880 -195 -401 -273 -751 -249 -1111 13
-184 50 -354 123 -559 11 -30 -78 71 -130 147 -129 192 -182 413 -171 708 7
161 22 257 66 423 84 316 239 562 576 918 120 127 149 152 245 210 339 205
720 289 1184 261 218 -13 257 -22 416 -101 195 -97 321 -193 515 -392 281
-288 411 -493 489 -765 84 -294 100 -510 61 -839 -2 -22 5 1 15 50 27 120 36
349 21 485 -55 480 -277 945 -597 1250 -207 197 -405 301 -624 329 -47 6 -134
20 -195 31 -105 20 -439 36 -505 24z"/>
<path d="M3460 4508 c3 -3 61 -47 129 -99 149 -111 359 -318 457 -449 188
-253 319 -536 373 -810 40 -205 46 -272 46 -510 0 -219 -2 -244 -28 -365 -72
-336 -195 -576 -404 -789 -90 -92 -189 -170 -278 -221 l-50 -29 61 65 c135
144 255 347 364 619 44 110 104 299 97 306 -2 3 -19 -37 -37 -88 -118 -340
-274 -631 -450 -838 -26 -30 -55 -68 -66 -84 l-18 -29 29 6 c42 10 258 117
335 167 36 23 90 63 120 89 l55 46 -62 -80 c-174 -225 -543 -511 -857 -665
-188 -91 -351 -144 -571 -185 -49 -9 -92 -19 -94 -21 -3 -2 112 -2 255 0 259
4 355 15 481 51 60 18 67 31 22 47 l-31 11 60 32 c253 135 482 346 754 695
137 175 197 268 269 415 257 525 252 1161 -15 1710 -169 348 -476 700 -806
922 -48 32 -148 90 -140 81z"/>
<path d="M2396 4214 c-177 -33 -395 -128 -561 -245 -49 -35 -151 -125 -226
-199 -194 -193 -319 -387 -387 -600 -23 -74 -27 -101 -27 -210 1 -89 6 -144
19 -190 19 -70 65 -168 98 -210 l21 -25 -7 82 c-15 178 31 450 108 632 63 148
172 315 277 423 273 278 749 394 1174 287 172 -44 425 -164 585 -277 88 -63
327 -287 400 -377 l33 -40 -20 36 c-45 79 -142 200 -243 299 -110 110 -210
186 -345 264 -279 160 -655 229 -955 174 -93 -17 -261 -75 -363 -126 -117 -59
-110 -45 21 40 236 152 508 219 766 188 283 -34 510 -138 806 -368 l35 -27
-16 25 c-27 43 -206 197 -300 259 -110 73 -247 134 -377 168 -82 22 -123 26
-267 29 -120 2 -193 -1 -249 -12z"/>
<path d="M2445 3899 c-116 -19 -267 -83 -400 -170 -86 -56 -275 -237 -275
-263 0 -37 50 -15 137 61 252 219 531 333 863 351 l115 6 -75 12 c-85 14 -289
16 -365 3z"/>
<path d="M3009 3630 c249 -138 400 -270 519 -453 76 -117 114 -229 132 -392
13 -110 46 -235 66 -250 18 -12 39 -165 25 -175 -4 -3 -7 -14 -5 -25 8 -53
-63 -250 -133 -365 -68 -112 -126 -184 -237 -295 -245 -244 -554 -385 -840
-385 -265 0 -531 139 -646 336 -22 39 -49 69 -75 85 -22 13 -117 99 -211 192
-94 92 -175 167 -178 167 -10 0 102 -169 169 -255 73 -92 219 -237 286 -283
26 -17 68 -60 93 -96 110 -155 266 -247 463 -276 58 -9 94 -8 143 0 143 25
159 25 188 -3 15 -14 39 -29 54 -32 41 -10 159 13 290 56 65 21 135 39 155 38
33 0 35 -2 16 -9 -12 -5 -32 -24 -45 -43 -48 -74 -289 -228 -442 -283 -136
-48 -255 -67 -416 -67 -366 2 -715 144 -1056 431 -136 114 -231 205 -293 277
l-43 50 33 -60 c135 -249 365 -464 647 -608 326 -167 738 -229 974 -148 91 31
295 139 418 222 150 100 272 203 451 382 291 289 420 473 497 712 48 147 57
214 57 410 -1 154 -4 194 -24 273 -39 157 -83 252 -116 252 -23 0 -23 -24 1
-105 57 -192 77 -321 78 -495 1 -199 -16 -275 -99 -445 -145 -298 -387 -518
-725 -659 -97 -41 -250 -90 -250 -80 0 6 70 68 230 205 255 218 383 357 484
528 104 177 156 363 156 567 0 185 -32 320 -114 479 -90 176 -303 421 -455
524 -63 43 -222 123 -271 136 -14 3 8 -12 49 -35z"/>
<path d="M2420 3580 c-114 -30 -263 -108 -342 -180 -103 -94 -89 -121 26 -50
139 85 251 133 408 174 91 25 126 45 114 65 -11 17 -123 12 -206 -9z"/>
<path d="M2594 3501 c-296 -48 -584 -284 -680 -559 -86 -249 -35 -518 141
-732 30 -36 77 -83 105 -105 29 -22 58 -44 64 -50 32 -27 120 -71 192 -96 22
-8 41 -17 44 -20 3 -3 12 -6 20 -6 8 -1 55 -6 103 -12 275 -33 558 100 746
350 115 151 164 295 164 474 0 202 -62 358 -207 514 l-41 44 35 -21 c19 -12
47 -26 61 -32 29 -12 98 -112 134 -195 36 -80 66 -204 75 -309 8 -87 9 -86 4
26 -8 190 -57 338 -157 474 -51 69 -198 185 -297 234 l-65 33 93 -93 c50 -52
92 -95 92 -96 0 -1 -30 18 -67 43 -81 55 -167 95 -248 117 -71 19 -239 28
-311 17z m309 -129 c107 -39 180 -85 263 -167 64 -64 90 -97 123 -165 96 -198
93 -375 -11 -590 -44 -92 -61 -115 -142 -195 -104 -104 -204 -162 -332 -195
-296 -76 -624 77 -759 355 -183 377 32 833 455 962 66 21 91 23 210 19 104 -3
148 -8 193 -24z"/>
<path d="M2566 3079 c-105 -36 -195 -115 -231 -202 -23 -56 -19 -55 36 6 36
41 71 67 127 94 72 36 81 38 171 38 83 0 104 -4 153 -27 245 -114 277 -413 61
-568 -84 -60 -153 -83 -253 -84 -76 -1 -92 3 -152 31 -75 35 -136 92 -170 155
-24 46 -32 164 -14 202 7 15 6 17 -3 11 -46 -28 -64 -162 -35 -249 44 -129
233 -246 399 -246 267 0 490 251 446 501 -24 137 -119 267 -237 325 -80 39
-209 45 -298 13z"/>
<path d="M2570 2931 c-63 -20 -149 -81 -172 -124 -10 -20 -9 -19 18 2 91 70
137 91 259 120 39 9 39 9 -20 9 -33 0 -71 -3 -85 -7z"/>
<path d="M2650 2880 c-133 -37 -235 -172 -215 -283 14 -72 68 -96 132 -57 50
30 67 72 73 180 4 77 10 101 28 127 25 35 20 44 -18 33z"/>
<path d="M1894 3381 c-135 -91 -242 -236 -295 -401 -27 -82 -32 -113 -35 -225
l-3 -130 13 71 c49 252 129 404 328 625 95 107 93 127 -8 60z"/>
<path d="M1786 3040 c-55 -121 -70 -195 -70 -345 1 -109 5 -146 27 -228 57
-208 138 -355 277 -501 198 -207 444 -331 696 -353 152 -13 342 47 509 160 61
41 179 134 160 126 -5 -2 -71 -34 -145 -71 -137 -68 -270 -113 -365 -124 l-53
-6 6 27 c6 34 -9 45 -65 45 -33 0 -50 -7 -83 -35 -47 -39 -64 -41 -160 -21
-173 37 -286 100 -420 235 -222 224 -332 425 -360 659 -17 139 6 301 65 446
35 88 24 79 -19 -14z"/>
<path d="M3542 2605 c0 -16 2 -22 5 -12 2 9 2 23 0 30 -3 6 -5 -1 -5 -18z"/>
<path d="M3522 2522 c-45 -172 -181 -350 -379 -494 -88 -64 -108 -85 -45 -47
186 113 295 226 380 395 33 64 66 168 60 185 -2 6 -9 -11 -16 -39z"/>
<path d="M4161 2314 c0 -11 3 -14 6 -6 3 7 2 16 -1 19 -3 4 -6 -2 -5 -13z"/>
<path d="M1470 1309 c151 -148 383 -259 670 -320 86 -18 138 -22 285 -22 99
-1 193 4 210 9 21 8 -3 9 -92 6 -144 -5 -288 10 -438 45 -234 55 -410 140
-665 321 -21 14 -8 -2 30 -39z"/>
<path d="M2233 533 c9 -2 23 -2 30 0 6 3 -1 5 -18 5 -16 0 -22 -2 -12 -5z"/>
</g>
</svg>